<?xml version="1.0" encoding="UTF-8"?>
<svg width="152px" height="32px" viewBox="8 9 132 15" version="1.1" xmlns="http://www.w3.org/2000/svg" xmlns:xlink="http://www.w3.org/1999/xlink">
    <g stroke="none" stroke-width="1" fill="none" fill-rule="evenodd">
        <path d="M22.8364653,23.5428183 L22.8364653,26 L8,26 L8,6 L22.5079015,6 L22.5079015,8.4286949 L10.9538692,8.4286949 L10.9538692,14.6464819 L21.1623123,14.6464819 L21.1623123,17.0750886 L10.9538692,17.0750886 L10.9538692,23.5428183 L22.8364653,23.5428183 Z M62.1473254,6 L62.1473254,26 L58.8979179,26 L46.8842881,10.4858272 L46.6216863,10.4858272 L46.6216863,26 L43.6345245,26 L43.6345245,6 L47.0811949,6 L58.8979179,21.4572875 L59.1604307,21.4572875 L59.1604307,6 L62.1473254,6 Z M71.7281058,15.4001023 L76.3891534,15.4001023 C79.4746796,15.4001023 81.4385847,14.0000176 81.4385847,11.9143986 C81.4385847,9.71456794 79.4089847,8.4286949 76.3891534,8.4286949 L71.7281058,8.4286949 L71.7281058,15.4001023 Z M81.9036123,26 L75.9296449,17.8285326 L71.7281058,17.8285326 L71.7281058,26 L68.806906,26 L68.806906,6 L76.7831451,6 C81.3128029,6 84.2669392,8.31439508 84.2669392,11.8572487 C84.2669392,14.6285785 82.23182,16.7141975 78.9821455,17.3998201 L85.2189818,26 L81.9036123,26 Z M90.4277544,25.9947083 L90.4277544,6 L93.5787975,6 L93.5787975,25.9947083 L90.4277544,25.9947083 Z M115.5599,15.8285503 C115.5599,11.5999859 112.678402,8.45718166 106.93499,8.45718166 L103.290612,8.45718166 L103.290612,23.5144198 L106.93499,23.5144198 C112.678402,23.5144198 115.5599,20.3712628 115.5599,15.8285503 Z M118.389768,15.8857002 C118.389768,21.9428854 114.64836,26 106.999973,26 L100.2382,26 L100.2382,6 L106.999973,6 C114.516614,6 118.389768,9.97130157 118.389768,15.8857002 Z M139,23.5428183 L139,26 L124.163446,26 L124.163446,6 L138.671525,6 L138.671525,8.4286949 L127.117938,8.4286949 L127.117938,14.6464819 L137.32558,14.6464819 L137.32558,17.0750886 L127.117938,17.0750886 L127.117938,23.5428183 L139,23.5428183 Z M35.7312798,6 L38.9798861,6 L30.4111462,26 L27.1625399,26 L35.7312798,6 Z" id="Logo_Einride_180313" fill="#000000"></path>
    </g>
</svg>
